<svg xmlns="http://www.w3.org/2000/svg" viewBox="0 0 32 32" shape-rendering="crispEdges">
  <rect width="32" height="32" rx="6" fill="#0c0c0c"/>
  <!-- Palm tree trunk -->
  <rect x="15" y="14" width="2" height="8" fill="#8B6914"/>
  <rect x="14" y="20" width="1" height="2" fill="#8B6914"/>
  <!-- Palm leaves -->
  <rect x="11" y="10" width="2" height="2" fill="#3ddc84"/>
  <rect x="13" y="11" width="2" height="2" fill="#3ddc84"/>
  <rect x="15" y="12" width="2" height="2" fill="#3ddc84"/>
  <rect x="17" y="11" width="2" height="2" fill="#3ddc84"/>
  <rect x="19" y="10" width="2" height="2" fill="#3ddc84"/>
  <rect x="13" y="9" width="2" height="2" fill="#3ddc84"/>
  <rect x="17" y="9" width="2" height="2" fill="#3ddc84"/>
  <rect x="9" y="11" width="2" height="1" fill="#3ddc84"/>
  <rect x="21" y="11" width="2" height="1" fill="#3ddc84"/>
  <!-- Island ground -->
  <rect x="10" y="22" width="12" height="2" fill="#3ddc84"/>
  <rect x="8" y="23" width="2" height="1" fill="#3ddc84"/>
  <rect x="22" y="23" width="2" height="1" fill="#3ddc84"/>
  <!-- Water -->
  <rect x="4" y="25" width="4" height="1" fill="#2196F3" opacity="0.4"/>
  <rect x="24" y="25" width="4" height="1" fill="#2196F3" opacity="0.4"/>
  <rect x="6" y="27" width="6" height="1" fill="#2196F3" opacity="0.3"/>
  <rect x="20" y="27" width="6" height="1" fill="#2196F3" opacity="0.3"/>
</svg>
